<svg xmlns="http://www.w3.org/2000/svg" width="15" height="10" viewBox="0 0 15 10"><defs><mask id="rkt9b" width="2" height="2" x="-1" y="-1"><path fill="#fff" d="M0 0h15v10H0z"/><path d="M15 1v8l-4-4zM-.031 0H15L7.781 6.344zm4.375 5L0 9V1zM8 8l2.281-2.219L15 10H-.031L5 5.813z"/></mask><filter id="rkt9a" width="35.5" height="30.9" x="-10" y="-10" filterUnits="userSpaceOnUse"><feOffset dx=".5" dy=".9" in="SourceGraphic" result="FeOffset1023Out"/><feGaussianBlur in="FeOffset1023Out" result="FeGaussianBlur1024Out" stdDeviation="0 0"/></filter><filter id="rkt9c" width="200%" height="200%" x="-50%" y="-50%"><feGaussianBlur in="SourceGraphic" result="FeGaussianBlur1029Out" stdDeviation="0 0"/></filter><mask id="rkt9d"><path fill="#fff" d="M15 1v8l-4-4zM-.031 0H15L7.781 6.344zm4.375 5L0 9V1zM8 8l2.281-2.219L15 10H-.031L5 5.813z"/></mask></defs><g><g><g filter="url(#rkt9a)"><path fill="none" d="M15 1v8l-4-4zM-.031 0H15L7.781 6.344zm4.375 5L0 9V1zM8 8l2.281-2.219L15 10H-.031L5 5.813z" mask="url(&quot;#rkt9b&quot;)"/><path fill="#fff" fill-opacity=".5" d="M15 1v8l-4-4zM-.031 0H15L7.781 6.344zm4.375 5L0 9V1zM8 8l2.281-2.219L15 10H-.031L5 5.813z"/></g><path fill="#848f99" d="M15 1v8l-4-4zM-.031 0H15L7.781 6.344zm4.375 5L0 9V1zM8 8l2.281-2.219L15 10H-.031L5 5.813z"/><path fill="#424a51" fill-opacity=".51" d="M-.5 10.9V-.9h16v11.8l-4.719-4.219L8.5 8.9l-3-2.187L.47 10.9zm12-5l4 4v-8zM8.281 7.244L15.5.9H.469zM.5 1.9v8l4.344-4zm-.031 9H15.5.469z" filter="url(#rkt9c)" mask="url(&quot;#rkt9d&quot;)"/></g></g></svg>